<svg id="icon_card_ver2" xmlns="http://www.w3.org/2000/svg" width="60.729" height="86.986" viewBox="0 0 60.729 86.986">
  <path id="패스_43" data-name="패스 43" d="M29.206-177.973h-1.29c-3.741,0-7.487-.121-11.222.032A7.487,7.487,0,0,1,9-185.625c.122-17.117.049-34.236.05-51.354,0-.179.013-.357.007-.535a7.041,7.041,0,0,1,7.077-7c3.917.1,7.838.021,11.757.021,5.7,0,11.4.1,17.1-.033a7.391,7.391,0,0,1,7.455,7.49c.015,3.887.074,7.776-.032,11.661a5.354,5.354,0,0,0,1.3,3.765c4.432,5.462,8.888,10.907,13.169,16.485a14.9,14.9,0,0,1,2.849,9.323q-.024,17.974-.006,35.948c0,.179,0,.357,0,.535a1.578,1.578,0,0,1-1.75,1.7c-7.624.006-15.257.216-22.871-.073-6.228-.236-10.972-3.327-14.007-8.9a17.526,17.526,0,0,1-1.877-8.118C29.183-175.742,29.206-176.774,29.206-177.973ZM52.59-218.407a2.153,2.153,0,0,0-.131.392q-.008,10.588.006,21.176a1.721,1.721,0,0,0,.39,1.052c1.132,1.271,2.3,2.508,3.484,3.736,1.685,1.751,1.66,1.213-.053,2.915-.051.05-.1.138-.157.139-.328,0-.793.121-.963-.048-1.146-1.151-2.223-2.37-3.335-3.555q-7.737-8.248-15.489-16.483a3.761,3.761,0,0,0-5.661-.149,3.866,3.866,0,0,0,.067,5.33q1.461,1.674,2.906,3.363,4.039,4.737,8.068,9.484c1.97,2.331,1.96,2.34,1.96,5.525,0,.677,0,1.355,0,2.032a16.267,16.267,0,0,0,8.473,14.731c.677.4,1.741.7,1.911,1.266.191.631-.43,1.509-.706,2.277-.02.054-.107.084-.2.154a23.4,23.4,0,0,1-2.194-.991,19.1,19.1,0,0,1-9.213-11.214c-.187-.613-.531-.711-1.09-.706-2.564.023-5.129.008-7.693.014-.27,0-.54.055-.853.089,0,1.4-.012,2.714,0,4.031a13.029,13.029,0,0,0,2.852,7.973,13.121,13.121,0,0,0,10.855,5.247c6.661.029,13.321.009,19.982.005.308,0,.617-.038.917-.057a2.378,2.378,0,0,0,.073-.381c0-11.872.02-23.744-.03-35.615a11.262,11.262,0,0,0-2.469-7.006q-3.894-4.975-7.823-9.923C55.229-215.182,53.947-216.734,52.59-218.407Zm-19-23.29H32.435q-7.8,0-15.6,0c-3.241,0-5,1.764-5,5.021q0,25.4,0,50.795c0,3.277,1.729,5.025,4.99,5.03q7.8.011,15.6,0c.376,0,.753-.039,1.118-.06a2.566,2.566,0,0,0,.085-.409c0-4.741.014-9.482-.009-14.222a1.606,1.606,0,0,0-.39-.917c-1.578-1.906-3.184-3.788-4.777-5.682a6.7,6.7,0,0,1,.9-9.731,6.7,6.7,0,0,1,4.236-1.495Zm15.846,42.281V-219.3c0-5.88-.046-11.759.015-17.638a4.479,4.479,0,0,0-5.713-4.606,1.842,1.842,0,0,0-.049.3q-.006,17.585.005,35.17a1.341,1.341,0,0,0,.3.839C45.722-203.352,47.479-201.5,49.437-199.416ZM36.525-241.669a2.466,2.466,0,0,0-.083.4q-.007,14.007,0,28.014a1.028,1.028,0,0,0,.169.682c1.354,1.239,2.736,2.447,4.125,3.677v-32.773Zm4.3,60.756c0-2.152,0-4.24-.007-6.327a.825.825,0,0,0-.162-.491c-1.341-1.6-2.694-3.192-4.135-4.893v11.711Z" transform="translate(-8.997 244.526)" fill="#624769"/>
  <path id="패스_44" data-name="패스 44" d="M31.747-133.076c1.316,0,2.633-.01,3.949,0,1.2.012,1.777.548,1.789,1.754q.041,4.006,0,8.012a1.578,1.578,0,0,1-1.779,1.789c-2.739.028-5.479.016-8.218.006a1.423,1.423,0,0,1-1.613-1.555c-.01-2.813-.032-5.627.012-8.439.018-1.148.521-1.556,1.7-1.568C28.971-133.087,30.359-133.076,31.747-133.076Zm2.7,8.715v-5.656H28.8v5.656Z" transform="translate(-18.64 180.8)" fill="#624769"/>
  <path id="패스_45" data-name="패스 45" d="M26.063-227.433h2.728v18.677H26.063Z" transform="translate(-18.755 234.752)" fill="#624769"/>
  <path id="패스_46" data-name="패스 46" d="M45.616-215.881H42.865v-11.483h2.751Z" transform="translate(-28.363 234.713)" fill="#624769"/>
</svg>
