<svg xmlns="http://www.w3.org/2000/svg" width="40.959" height="41.351" viewBox="0 0 40.959 41.351">
  <g id="icon_water_drop" transform="translate(0.5 0.892)">
    <path id="path2" d="M1488.826,351.329a15.374,15.374,0,0,1,3.365-1.48,19.579,19.579,0,0,0,17.535,0,15.313,15.313,0,0,1,3.367,1.48c-2.621,2.9-8.193,3.923-12.134,3.923S1491.447,354.229,1488.826,351.329Zm23.656-7.559a12.057,12.057,0,0,1-1.532,2.974c4.217,1.4,6.658,3.515,6.658,5.178,0,2.716-6.487,6.66-16.65,6.66s-16.65-3.944-16.65-6.66c0-1.663,2.441-3.781,6.658-5.178a12.06,12.06,0,0,1-1.53-2.974c-5.111,1.808-8.458,4.783-8.458,8.152,0,5.516,8.946,9.99,19.979,9.99s19.98-4.474,19.98-9.99C1520.938,348.553,1517.592,345.579,1512.482,343.77Zm-2.642-3.976a8.88,8.88,0,0,1-17.76,0c0-4.857,3.475-9.853,8.879-17.842C1506.365,329.94,1509.839,334.937,1509.839,339.794Zm-12.211-6.065c0,2.641,4.44,1.93,4.44-2.409a7.216,7.216,0,0,0-1.14-3.685C1499.836,329.24,1497.629,331.917,1497.629,333.728Z" transform="translate(-1480.979 -321.952)" fill="#624769" stroke="#707070" stroke-width="1"/>
  </g>
</svg>
