<svg id="icon_abank_ver1" xmlns="http://www.w3.org/2000/svg" width="73.951" height="88.704" viewBox="0 0 73.951 88.704">
  <path id="패스_36" data-name="패스 36" d="M68.79,160.315a6.42,6.42,0,0,1,2.323,5.324q-.069,13.772-.009,27.545a5.736,5.736,0,0,1-3.939,5.477,8.1,8.1,0,0,1-2.234.2q-21.181.017-42.362.008c-1.509,0-2.089.585-2.093,2.136q-.009,4.23,0,8.461v1.086H-2.808v-1.2c0-11.281.028-22.562-.03-33.842A5.818,5.818,0,0,1-1.113,171.4c2.457-2.706,4.974-5.359,7.394-8.1a30.087,30.087,0,0,0,2.145-3.12c-1.759-1.315-2.172-3.3-2.163-5.524q.051-13.379,0-26.759a6.2,6.2,0,0,1,1.2-4.057,4.656,4.656,0,0,1,3.37-1.965c.295-.014.589-.029.884-.029H65.674a4.7,4.7,0,0,1,3.179,1.03,5.753,5.753,0,0,1,2.226,4.668q.012,9.936,0,19.872c0,2.525-.049,5.051.015,7.575A6.317,6.317,0,0,1,68.79,160.315ZM8.4,129.1v1.024q0,12.591,0,25.183c0,2.73,1.294,4.033,4.018,4.034q26.24.005,52.481,0c2.727,0,4.041-1.312,4.042-4.01q0-12.592,0-25.183V129.1Zm60.514,62.609c.016-.264.039-.455.039-.646q0-13.131-.006-26.262a3.492,3.492,0,0,0-3.81-3.568q-26.435,0-52.87,0a3.526,3.526,0,0,0-3.848,3.838c-.013,3.213-.005,6.427,0,9.64,0,.228.048.456.094.862.313-.464.485-.779.712-1.046,1.324-1.553,2.694-3.069,3.987-4.648,1.822-2.226,3.687-2.745,6.319-1.644a4.284,4.284,0,0,1,2.041,6.151,84.468,84.468,0,0,1-4.888,6.957,4.126,4.126,0,0,0-1.068,3.244,30.97,30.97,0,0,1,.035,5.09,13.323,13.323,0,0,1-.378,2.032Zm-62.19,6.7a12.808,12.808,0,0,1,1.216-.7c2.906-1.273,4.434-3.689,5.282-6.573a17.223,17.223,0,0,0,.148-7.8,1.811,1.811,0,0,1,.153-1.107,20.828,20.828,0,0,1,1.358-2.016c1.566-2.161,3.159-4.3,4.712-6.474.924-1.291.752-2.286-.513-3.442a2.667,2.667,0,0,0-3.407.037c-1.37,1.435-2.657,2.949-3.954,4.453-1.12,1.3-2.15,2.676-3.324,3.921-.72.763-1.7,1.273-2.448,2.018-1.06,1.062-2.008,2.235-3.107,3.477a2.432,2.432,0,0,1-.848-.34c-.227-.183-.473-.652-.387-.863A8.283,8.283,0,0,1,5.363,178.7a1.475,1.475,0,0,0,.953-1.5c-.03-2.755-.011-5.509-.011-8.264v-2.226l-.22-.108c-.316.355-.629.713-.949,1.064-1.495,1.644-2.957,3.319-4.5,4.914a3.826,3.826,0,0,0-1.316,2.806c.026,8.461.014,16.923.014,25.384v1.071H18.476v-3c-1.766,0-3.6.043-5.43-.013-1.713-.052-3.4-.134-4.818,1.1a2.615,2.615,0,0,1-.729.309ZM8.5,126.933H68.994c-.358-1.071-.482-2.185-1.664-2.566a8.541,8.541,0,0,0-2.522-.558q-24.524-.049-49.048-.024c-1.344,0-2.687,0-4.03.007A3.194,3.194,0,0,0,8.5,126.933Zm60.362,66.948H41.22q-12.918,0-25.836.011c-.36,0-.879.038-1.053.265-.618.81-1.12,1.709-1.7,2.634.251.018.38.035.51.035q26.131,0,52.261,0A3.259,3.259,0,0,0,68.866,193.882ZM18.4,204.056H-.6v4.338h19Z" transform="translate(2.837 -121.85)" fill="#624769"/>
  <path id="패스_37" data-name="패스 37" d="M65.8,155.521v-3.185H39.29V150.4H80.775v1.885H68.047v3.3H80.779v2.095H68.052v3.275H80.791v2.006H51.774c-.24,1.582-.413,3.055-.694,4.507a8.668,8.668,0,0,1-3.209,5.035,10.226,10.226,0,0,1-9.246,2.272,10.269,10.269,0,0,1-8.056-8.166,9.917,9.917,0,0,1,2.18-8.813,11.1,11.1,0,0,1,7.15-3.979c2.347-.374,4.442.454,6.488,1.474a2.4,2.4,0,0,0,1.007.294q8.893.026,17.785.009A5.615,5.615,0,0,0,65.8,155.521ZM32.413,164.46a8.551,8.551,0,1,0,17.1-.019,8.4,8.4,0,0,0-8.485-8.529A8.511,8.511,0,0,0,32.413,164.46Zm33.394-6.626H49.353l1.751,3.054h14.7Z" transform="translate(-17.249 -139.157)" fill="#624769"/>
  <path id="패스_38" data-name="패스 38" d="M136.992,191.636h-13.8v-2h13.8Z" transform="translate(-73.563 -162.94)" fill="#624769"/>
  <path id="패스_39" data-name="패스 39" d="M123.153,204.642v-1.714h13.829v1.714Z" transform="translate(-73.54 -171.001)" fill="#624769"/>
  <path id="패스_40" data-name="패스 40" d="M98.076,235.411v4.5H94.46v9.21h2.57v5.159H67.547v-5.1h2.41v-9.22H66.439c0-1.478-.017-2.842.021-4.2.005-.176.263-.433.458-.5q5.839-2.119,11.694-4.2,1.613-.574,3.25-1.076a1.6,1.6,0,0,1,.931-.07c3.287,1.175,6.559,2.389,9.84,3.58C94.44,234.141,96.257,234.769,98.076,235.411Zm-2.23,2.524.306-.216c-.224-.338-.374-.866-.682-.984q-5.432-2.083-10.91-4.045a4.671,4.671,0,0,0-2.408-.508c-2.205.563-4.354,1.354-6.507,2.111-2.183.768-4.324,1.662-6.525,2.373-.78.252-.925.548-.669,1.268Zm-8.784,2.037v9.108h5.294v-9.108Zm-14.868-.02v9.121h5.212v-9.121Zm7.495.022V249.1H84.9v-9.126Zm15.26,11.371H69.658v.918h25.29Z" transform="translate(-39.157 -187.328)" fill="#624769"/>
  <path id="패스_41" data-name="패스 41" d="M42.779,332.754H44.2v1.994H42.779Z" transform="translate(-24.816 -249.703)" fill="#624769"/>
  <path id="패스_42" data-name="패스 42" d="M51.33,180.628l-.111.962H49.626l-.139-1.051a4.287,4.287,0,0,1-3.675-3.8c.958-.15,1.717-.341,2.177.848a2.264,2.264,0,0,0,1.595,1.081,9.028,9.028,0,0,0,2.691-.239,1.117,1.117,0,0,0,.909-1.4,1.872,1.872,0,0,0-.949-1.179c-.832-.346-1.772-.422-2.644-.686a10.371,10.371,0,0,1-1.893-.786,2.936,2.936,0,0,1-.234-5.206,16.163,16.163,0,0,1,2.119-.99l.1-1.2h1.581l.1,1.445c1.961.583,3.512,1.6,3.416,4.069H53.113a2.935,2.935,0,0,0-4.346-2.024,1.964,1.964,0,0,0-.923,1.334,1.675,1.675,0,0,0,.925,1.188,27.084,27.084,0,0,0,2.89.9,10.8,10.8,0,0,1,1.906.705,2.383,2.383,0,0,1,1.417,2.562c-.181,1.129-.425,2.27-1.712,2.735C52.632,180.121,52,180.372,51.33,180.628Z" transform="translate(-26.654 -149.203)" fill="#624769"/>
</svg>
