<svg id="icon_no_water" xmlns="http://www.w3.org/2000/svg" width="28.497" height="45.159" viewBox="0 0 28.497 45.159">
  <g id="그룹_40" data-name="그룹 40" transform="translate(0.42)">
    <path id="패스_88" data-name="패스 88" d="M1567.018,391.24l-2.854-.091v-.476a10.476,10.476,0,0,1-10.53-10.4c0-3.256,1.352-6.818,3.653-11.006l-2.154-3.31c-3.154,5.4-5.007,9.91-5.007,14.316a14.062,14.062,0,0,0,21.843,11.559l-1.408-2.162Z" transform="translate(-1550.126 -352.069)" fill="#624769"/>
    <path id="패스_89" data-name="패스 89" d="M1555.08,370.858v10.833a10.565,10.565,0,0,0,5.889-1.782Z" transform="translate(-1541.042 -343.087)" fill="#624769"/>
    <path id="패스_90" data-name="패스 90" d="M1560.409,361.058c-3.224,4.764-6.01,8.853-8.235,12.511l2.136,3.282c1.652-2.845,3.715-5.985,6.1-9.527v18.9l6.994,10.751.5.771,1.417,2.179a13.766,13.766,0,0,0,5.126-10.663C1574.448,381.586,1568.956,373.685,1560.409,361.058Z" transform="translate(-1546.371 -361.058)" fill="#624769"/>
    <path id="패스_91" data-name="패스 91" d="M1555.08,375.834v.476l2.854.091,3.542-1.567-.507-.782A10.565,10.565,0,0,1,1555.08,375.834Z" transform="translate(-1541.042 -337.23)" fill="#624769"/>
  </g>
  <g id="path1944" transform="translate(0 7.287)">
    <path id="패스_92" data-name="패스 92" d="M1574.112,401.5l-24.134-37.1,1.19-.772,24.134,37.1Z" transform="translate(-1549.978 -363.63)" fill="#624769"/>
  </g>
</svg>
