<svg id="icon_dollar_ver2" xmlns="http://www.w3.org/2000/svg" width="26.446" height="26.445" viewBox="0 0 26.446 26.445">
  <path id="패스_28" data-name="패스 28" d="M12.1,8.8A13.222,13.222,0,1,0,25.318,22.021,13.238,13.238,0,0,0,12.1,8.8Zm.863,14.567a7.417,7.417,0,0,1,2.191.874,2.2,2.2,0,0,1,.822,1.935,2.549,2.549,0,0,1-1.942,2.512,5.909,5.909,0,0,1-1.071.272ZM11.233,20.69a11.559,11.559,0,0,1-2.311-.75,1.912,1.912,0,0,1-.986-1.788,2.666,2.666,0,0,1,.835-1.945,3.57,3.57,0,0,1,2.462-.822ZM.454,22.021A11.646,11.646,0,0,1,11.233,10.427v3.019a5.786,5.786,0,0,0-3.927,1.413A4.856,4.856,0,0,0,5.8,18.537a3.509,3.509,0,0,0,1.534,3.111,9.686,9.686,0,0,0,3.026,1.1l.876.2V29A3.937,3.937,0,0,1,8,27.4a4.655,4.655,0,0,1-.644-2.3H5.241A5.411,5.411,0,0,0,6.92,29.366a6.509,6.509,0,0,0,4.313,1.555v2.7A11.648,11.648,0,0,1,.454,22.021Zm12.5,11.6V30.867a8.183,8.183,0,0,0,3.25-1.105,4.255,4.255,0,0,0,1.958-3.949,3.988,3.988,0,0,0-1.535-3.383,6.792,6.792,0,0,0-2.522-1.052l-1.15-.271V15.541a3.235,3.235,0,0,1,1.911,1.13,4.282,4.282,0,0,1,.694,2.047h2.116A4.6,4.6,0,0,0,15.9,14.683a6.791,6.791,0,0,0-2.942-1.149V10.427a11.627,11.627,0,0,1,0,23.192Z" transform="translate(1.128 -8.799)" fill="#624769"/>
</svg>
