<svg id="icon_angry" xmlns="http://www.w3.org/2000/svg" width="39.959" height="39.959" viewBox="0 0 39.959 39.959">
  <path id="path2" d="M1618.078,372.528a16.65,16.65,0,1,1-16.65,16.65A16.669,16.669,0,0,1,1618.078,372.528Zm0-3.33a19.98,19.98,0,1,0,19.979,19.98A19.98,19.98,0,0,0,1618.078,369.2Zm0,23.309c-3.883,0-6.9,2.724-8.48,4.657l.784.966c2.141-1.364,4.494-3.735,7.641-3.735s5.609,2.371,7.75,3.735l.784-.966C1624.98,395.231,1621.962,392.507,1618.079,392.507Zm-5.829-9.99a2.5,2.5,0,1,0,2.5,2.5A2.5,2.5,0,0,0,1612.25,382.518Zm11.655,0a2.5,2.5,0,1,0,2.5,2.5A2.5,2.5,0,0,0,1623.9,382.518Z" transform="translate(-1598.098 -369.198)" fill="#624769"/>
</svg>
