<svg id="icon_chat_ver1" xmlns="http://www.w3.org/2000/svg" width="28.852" height="26.447" viewBox="0 0 28.852 26.447">
  <path id="path2" d="M67.8,2.937c6.629,0,12.021,4.318,12.021,9.625,0,5.911-6.185,9.57-11.913,9.57a20.5,20.5,0,0,1-5.282-.774,16.213,16.213,0,0,1-5.135,2.188,11.251,11.251,0,0,0,.724-5.127,8.465,8.465,0,0,1-2.434-5.857C55.781,7.255,61.174,2.937,67.8,2.937Zm0-2.4c-7.619,0-14.426,5.08-14.426,12.03a10.593,10.593,0,0,0,2.461,6.762c.066,2.2-1.23,5.357-2.4,7.655,3.128-.565,7.575-1.813,9.591-3.049a20.621,20.621,0,0,0,4.879.6c8.516,0,14.317-5.815,14.317-11.974C82.228,5.576,75.375.533,67.8.533ZM63.6,12.554a1.8,1.8,0,1,1-1.8-1.8A1.8,1.8,0,0,1,63.6,12.554Zm4.207-1.8a1.8,1.8,0,1,0,1.8,1.8A1.8,1.8,0,0,0,67.8,10.751Zm6.011,0a1.8,1.8,0,1,0,1.8,1.8A1.8,1.8,0,0,0,73.813,10.751Z" transform="translate(-53.377 -0.533)" fill="#624769"/>
</svg>
