<svg id="icon_repair" xmlns="http://www.w3.org/2000/svg" width="37.854" height="37.854" viewBox="0 0 37.854 37.854">
  <g id="그룹_36" data-name="그룹 36">
    <path id="path3041" d="M1596.142,367.394a8.317,8.317,0,0,0-6.539-2.412c-1.236.093-3.645,1.142-4.522.265l-7.877-7.812c-.879-.879.044-3.479.137-4.716a8.3,8.3,0,0,0-8.285-8.965,8.424,8.424,0,0,0-2.374.341l6.358,6.254c.543,2.506-3.159,5.935-5.7,5.382l-6.287-6.009a8.415,8.415,0,0,0-.344,2.38,8.305,8.305,0,0,0,8.965,8.282c1.235-.095,3.814-1.213,4.691-.334l8.008,8.077c.875.883-.437,4.519-.437,4.519a7.587,7.587,0,0,0,2.019,6.342,9.417,9.417,0,0,0,6.263,2.621,8.469,8.469,0,0,0,2.378-.342l-6.051-6.12c-.555-2.536,3.263-5.675,5.768-5.132l5.909,5.628a8.453,8.453,0,0,0,.341-2.375A8.272,8.272,0,0,0,1596.142,367.394Z" transform="translate(-1560.714 -343.754)" fill="#624769"/>
    <path id="path6139-8-6" d="M1576.209,361.255l9.84-9.763a6.053,6.053,0,0,1,1.486-1.052l1.093-.566,1.931-4.042-1.568-1.569-3.956,2.016-.566,1.091a6.188,6.188,0,0,1-1.082,1.456l-9.84,9.763Z" transform="translate(-1553.306 -343.461)" fill="#624769"/>
    <path id="path6139-8-4" d="M1565.437,371.959c1.323-.363,2.7-1.778,3.8-2.8l9.276-8.766-4.344-4.334-9.709,8.522a12.312,12.312,0,0,0-2.771,3.5c-.618,1.337-.6,2.219.511,3.249S1564.051,372.339,1565.437,371.959Z" transform="translate(-1560.386 -336.654)" fill="#624769"/>
  </g>
</svg>
