<svg id="icon_no_wifi" xmlns="http://www.w3.org/2000/svg" width="44.323" height="35.569" viewBox="0 0 44.323 35.569">
  <g id="그룹_51" data-name="그룹 51" transform="translate(0 2.327)">
    <g id="그룹_44" data-name="그룹 44" transform="translate(5.538 9.283)">
      <path id="패스_98" data-name="패스 98" d="M1553.38,333.239l2.78,2.75a18.165,18.165,0,0,1,10.172-6.626l-2.352-3.615A22.059,22.059,0,0,0,1553.38,333.239Z" transform="translate(-1553.38 -325.748)" fill="#624769"/>
    </g>
    <g id="그룹_45" data-name="그룹 45" transform="translate(22.393 16.636)">
      <path id="패스_99" data-name="패스 99" d="M1568.3,337.108l2.773-2.748a14.127,14.127,0,0,0-10.849-5.626l3.071,4.72A11.13,11.13,0,0,1,1568.3,337.108Z" transform="translate(-1560.225 -328.734)" fill="#624769"/>
    </g>
    <g id="그룹_46" data-name="그룹 46" transform="translate(11.081 16.695)">
      <path id="패스_100" data-name="패스 100" d="M1555.631,334.325l2.773,2.748a10.59,10.59,0,0,1,8.308-4.233,9.657,9.657,0,0,1,1.541.135l-2.743-4.218A14.247,14.247,0,0,0,1555.631,334.325Z" transform="translate(-1555.631 -328.758)" fill="#624769"/>
    </g>
    <g id="그룹_47" data-name="그룹 47" transform="translate(16.638 24.931)">
      <path id="패스_101" data-name="패스 101" d="M1563.411,332.1a7.037,7.037,0,0,0-5.523,2.837l5.523,5.474,5.521-5.471A7.028,7.028,0,0,0,1563.411,332.1Z" transform="translate(-1557.888 -332.103)" fill="#624769"/>
    </g>
    <g id="그룹_48" data-name="그룹 48" transform="translate(17.36 8.31)">
      <path id="패스_102" data-name="패스 102" d="M1562.983,329.509a17.635,17.635,0,0,1,13.843,7.057l2.777-2.75a21.153,21.153,0,0,0-16.621-8.463,19.762,19.762,0,0,0-4.8.591l2.44,3.75A16.663,16.663,0,0,1,1562.983,329.509Z" transform="translate(-1558.181 -325.353)" fill="#624769"/>
    </g>
    <g id="그룹_49" data-name="그룹 49" transform="translate(0 2.258)">
      <path id="패스_103" data-name="패스 103" d="M1551.131,331.922l2.78,2.753a26.049,26.049,0,0,1,11.039-8.318l-2.251-3.462A29.953,29.953,0,0,0,1551.131,331.922Z" transform="translate(-1551.131 -322.895)" fill="#624769"/>
    </g>
    <g id="그룹_50" data-name="그룹 50" transform="translate(12.706)">
      <path id="패스_104" data-name="패스 104" d="M1565.747,321.978a26.424,26.424,0,0,0-9.455,1.748l2.329,3.578a23,23,0,0,1,7.126-1.17,24.681,24.681,0,0,1,19.381,9.881l2.78-2.753C1582.488,326.356,1574.579,321.978,1565.747,321.978Z" transform="translate(-1556.291 -321.978)" fill="#624769"/>
    </g>
  </g>
  <g id="path1944" transform="translate(7.432)">
    <path id="패스_105" data-name="패스 105" d="M1575.12,353.942,1554.149,321.7l1.034-.671,20.971,32.238Z" transform="translate(-1554.149 -321.033)" fill="#624769"/>
  </g>
</svg>
