<svg id="icon_complain" xmlns="http://www.w3.org/2000/svg" width="45.543" height="41.242" viewBox="0 0 45.543 41.242">
  <g id="layer2" transform="translate(0 13.443)">
    <path id="path986" d="M-23.345,21.074c-.014.019-.029.04-.045.059-.006.05-.006.1-.011.145.019-.069.035-.13.056-.2Z" transform="translate(23.4 -21.074)" fill="red"/>
  </g>
  <g id="layer1" transform="translate(0.056)">
    <g id="g1107" transform="translate(0 0)">
      <path id="path2" d="M19,1C8.968,1,0,7.7,0,16.871a14,14,0,0,0,3.24,8.923c.089,2.9-1.616,7.066-3.155,10.1,4.12-.743,9.979-2.391,12.634-4.02a26.989,26.989,0,0,0,6.425.8c11.218,0,18.862-7.673,18.862-15.8C38.007,7.65,28.978,1,19,1Zm0,3.8c8.382,0,15.2,5.413,15.2,12.066,0,5.768-5.758,11.992-15.062,11.992A27.111,27.111,0,0,1,12.081,27.8a19.087,19.087,0,0,1-5.712,2.609A16.48,16.48,0,0,0,7,24.357c-1.591-1.9-3.2-3.933-3.2-7.486C3.8,10.218,10.621,4.8,19,4.8Z" transform="translate(0 -1)" fill="#624769"/>
      <path id="path1057" d="M30.014,11.877c-2.372,7.193-9.371,12.7-18.031,13.952,2.773,3.44,8,5.544,14.39,3.99a29.931,29.931,0,0,0,8.269,2.632c-1.007-1.984-2.122-4.708-2.067-6.61A9.163,9.163,0,0,0,34.7,20a9.756,9.756,0,0,0-4.684-8.121Z" transform="translate(10.789 8.792)" fill="#624769"/>
    </g>
  </g>
</svg>
