<svg id="icon_person_ver1" xmlns="http://www.w3.org/2000/svg" width="26.887" height="26.885" viewBox="0 0 26.887 26.885">
  <path id="패스_29" data-name="패스 29" d="M54.631,13.035A13.447,13.447,0,0,0,42.536,1.028c-.422-.039-.848-.062-1.279-.062s-.848.023-1.265.062a13.44,13.44,0,0,0,1.045,26.819c.073,0,.146.005.22.005s.153,0,.231-.005A13.444,13.444,0,0,0,54.631,15.783c.045-.452.069-.911.069-1.375S54.676,13.486,54.631,13.035ZM45.6,8.982a4.364,4.364,0,1,1-4.364-4.364A4.364,4.364,0,0,1,45.6,8.982Zm-4.34,16.763a11.349,11.349,0,0,1-10.118-6.231c1.01-2.539,5.251-4.445,10.33-4.445,4.78,0,8.815,1.687,10.117,4A11.351,11.351,0,0,1,41.257,25.746Z" transform="translate(-27.813 -0.966)" fill="#624769"/>
</svg>
