<svg id="icon_benefit" xmlns="http://www.w3.org/2000/svg" width="41.873" height="41.873" viewBox="0 0 41.873 41.873">
  <path id="path2" d="M19.192,41.873H3.489V20.936h15.7Zm0-31.4H0v6.979H19.192Zm3.489,31.4h15.7V20.936h-15.7Zm0-31.4v6.979H41.873V10.468ZM30.3,0c-5.142,0-8.149,6.066-9.367,8.723h9.325A4.367,4.367,0,1,0,30.3,0ZM28.915,6.318H25.35c1.289-1.956,2.511-3.43,4.086-3.43C31.481,2.887,31.579,6.318,28.915,6.318Zm-17.3,2.406h9.325C19.718,6.066,16.711,0,11.569,0a4.367,4.367,0,1,0,.042,8.723Zm.825-5.836c1.575,0,2.8,1.474,4.086,3.43H12.958c-2.664,0-2.566-3.43-.522-3.43Z" fill="#624769"/>
</svg>
