<svg id="layer1" xmlns="http://www.w3.org/2000/svg" width="45.353" height="45.353" viewBox="0 0 45.353 45.353">
  <g id="g841" transform="translate(0 0)">
    <g id="g928" transform="translate(0 0)">
      <path id="path4" d="M75.575,38.9H31.429a.6.6,0,0,1-.6-.6V-5.851a.6.6,0,0,1,.6-.6H75.575a.6.6,0,0,1,.6.6V38.3a.6.6,0,0,1-.6.6Z" transform="translate(-30.825 6.454)" fill="#624769"/>
      <ellipse id="ellipse6" cx="8.129" cy="7.9" rx="8.129" ry="7.9" transform="translate(14.547 14.948)" fill="none" stroke="#6d4bea" stroke-width="0.265"/>
      <ellipse id="ellipse8" cx="8.129" cy="7.9" rx="8.129" ry="7.9" transform="translate(14.547 14.948)" fill="none" stroke="#624769" stroke-width="0.265"/>
      <path id="path10" d="M39.38-4.106a6.17,6.17,0,0,0-6.256,6.08,6.259,6.259,0,0,0,12.512,0A6.17,6.17,0,0,0,39.38-4.106Zm0,9.186a3.152,3.152,0,0,1-3.2-3.106,3.2,3.2,0,0,1,6.393,0A3.152,3.152,0,0,1,39.38,5.08Z" transform="translate(-16.704 20.875)" fill="#fff"/>
      <path id="path12" d="M47.808-5.44a15.835,15.835,0,0,0-16.056,15.6q0,.355.017.705V26.1h3.1V10.332h0c0-.056,0-.112,0-.168a12.941,12.941,0,0,1,25.872,0A12.757,12.757,0,0,1,47.809,22.735a13.1,13.1,0,0,1-8.129-2.8V17.62a11.3,11.3,0,0,0,8.129,3.409A11.027,11.027,0,0,0,58.989,10.163a11.186,11.186,0,0,0-22.362,0c0,.04,0,.078,0,.117h0V26.1h3.052V23.619a16.316,16.316,0,0,0,8.129,2.149,15.835,15.835,0,0,0,16.056-15.6A15.835,15.835,0,0,0,47.808-5.44Zm0,7.7a8.017,8.017,0,0,1,8.129,7.9,8.132,8.132,0,0,1-16.257,0A8.016,8.016,0,0,1,47.808,2.264Z" transform="translate(-25.132 12.684)" fill="#fff"/>
    </g>
  </g>
</svg>
