<svg id="logo_podo" xmlns="http://www.w3.org/2000/svg" width="79.14" height="21" viewBox="0 0 79.14 21">
  <g id="text1549" transform="translate(-0.077 -8.561)" style="mix-blend-mode: normal;isolation: isolate">
    <g id="그룹_1" data-name="그룹 1" transform="translate(0.077 8.561)" style="mix-blend-mode: normal;isolation: isolate">
      <path id="패스_1" data-name="패스 1" d="M.077,8.716H9.084a6.17,6.17,0,0,1,4.314,1.5,5.385,5.385,0,0,1,1.642,4.2,6.057,6.057,0,0,1-1.465,4.053A5.562,5.562,0,0,1,9.088,20.19H2.8V28.6H.077Zm10.577,2.735A5.943,5.943,0,0,0,8.19,11.03H2.8v6.889H8.19a5.175,5.175,0,0,0,2.961-.772,3.046,3.046,0,0,0,1.134-2.721A2.982,2.982,0,0,0,10.654,11.451Z" transform="translate(-0.077 -8.177)" fill="#624769"/>
      <path id="패스_2" data-name="패스 2" d="M22.708,11.943a10.863,10.863,0,0,1,2,6.749,11.7,11.7,0,0,1-2.289,7.4,9.124,9.124,0,0,1-7.661,3.465,9.2,9.2,0,0,1-7.3-3.034,11.347,11.347,0,0,1-2.373-7.386,11.641,11.641,0,0,1,2.028-6.9,8.827,8.827,0,0,1,7.7-3.677Q20.142,8.561,22.708,11.943ZM20.3,24.61a10.775,10.775,0,0,0,1.607-5.869,8.3,8.3,0,0,0-1.854-5.647,6.379,6.379,0,0,0-5.08-2.14,6.652,6.652,0,0,0-5.1,2.119Q7.9,15.192,7.908,19.322A9.061,9.061,0,0,0,9.6,24.9c1.131,1.517,2.957,2.268,5.487,2.268A5.7,5.7,0,0,0,20.3,24.61Z" transform="translate(12.333 -8.561)" fill="#624769"/>
      <path id="패스_3" data-name="패스 3" d="M11.693,8.716H19.74A7.589,7.589,0,0,1,26.1,11.625a10.73,10.73,0,0,1,2.014,6.725,13.428,13.428,0,0,1-1.19,5.727A7.347,7.347,0,0,1,19.712,28.6H11.693ZM19.2,26.293a7.47,7.47,0,0,0,2.223-.282,4.9,4.9,0,0,0,2.547-2.032,8.347,8.347,0,0,0,1.141-3.086,12.034,12.034,0,0,0,.2-2.084,9.775,9.775,0,0,0-1.454-5.737,5.349,5.349,0,0,0-4.683-2.042H14.448V26.293Z" transform="translate(28.721 -8.177)" fill="#624769"/>
      <path id="패스_4" data-name="패스 4" d="M34.809,11.943a10.862,10.862,0,0,1,2,6.749,11.7,11.7,0,0,1-2.289,7.4,9.113,9.113,0,0,1-7.658,3.465,9.2,9.2,0,0,1-7.306-3.034,11.345,11.345,0,0,1-2.369-7.386,11.641,11.641,0,0,1,2.028-6.9,8.825,8.825,0,0,1,7.7-3.677Q32.245,8.561,34.809,11.943Zm-2.4,12.667a10.775,10.775,0,0,0,1.607-5.869,8.289,8.289,0,0,0-1.858-5.647,6.374,6.374,0,0,0-5.08-2.14,6.644,6.644,0,0,0-5.093,2.119Q20,15.192,20.006,19.322A9.04,9.04,0,0,0,21.7,24.9c1.131,1.517,2.957,2.268,5.487,2.268A5.7,5.7,0,0,0,32.405,24.61Z" transform="translate(42.333 -8.561)" fill="#624769"/>
    </g>
  </g>
</svg>
