<svg xmlns="http://www.w3.org/2000/svg" width="16.444" height="19.124" viewBox="0 0 16.444 19.124">
  <path id="podo_windows_logo" d="M9.309,5a6.3,6.3,0,0,0-2.771.78l-.3.13-.08.416L5.012,11.418,4.691,12.9l1.124-.442a5.252,5.252,0,0,1,1.928-.442h.04a3.82,3.82,0,0,1,2.309.858l.723.52.221-1.013L12.24,7l.141-.624-.422-.338A4.185,4.185,0,0,0,9.309,5Zm0,1.663a2.722,2.722,0,0,1,1.546.52L9.992,11a4.481,4.481,0,0,0-2.189-.65h-.06a6.1,6.1,0,0,0-1.2.26L7.3,7.235A5.341,5.341,0,0,1,9.309,6.663Zm3.9.52L12.963,8.2l-1.2,5.431-.141.624.422.312a4.337,4.337,0,0,0,2.69,1.065,5.331,5.331,0,0,0,2.711-.6l.281-.156.08-.39,1.185-5.327.3-1.429-1.084.39a4.925,4.925,0,0,1-1.928.208A3.861,3.861,0,0,1,13.907,7.7Zm.823,2.339a5.419,5.419,0,0,0,2.249.468c.329,0,.8-.1,1.2-.13l-.8,3.664a4.616,4.616,0,0,1-1.948.442,2.8,2.8,0,0,1-1.586-.546ZM7.442,13.653a6,6,0,0,0-2.69.831l-.3.156-.08.39L3.185,20.174l-.341,1.481,1.144-.442A6.744,6.744,0,0,1,6.1,20.8a2.914,2.914,0,0,1,2.088.754l.7.52.221-1.013L10.333,15.6l.141-.624-.422-.312A4.153,4.153,0,0,0,7.442,13.653Zm0,1.663a2.7,2.7,0,0,1,1.526.494l-.883,3.872A3.856,3.856,0,0,0,6.1,19.135a7.608,7.608,0,0,0-1.405.286l.8-3.456A5.015,5.015,0,0,1,7.442,15.316Zm3.855.416-.221,1.013-1.2,5.379-.141.624.4.312a4.236,4.236,0,0,0,2.67,1.065,5.8,5.8,0,0,0,2.69-.65l.3-.13.08-.416,1.185-5.119.321-1.4-1.1.364a6.026,6.026,0,0,1-1.847.312A3.941,3.941,0,0,1,12,16.251Zm.8,2.364a4.691,4.691,0,0,0,2.329.65,6.921,6.921,0,0,0,1.1-.182l-.783,3.43a4.909,4.909,0,0,1-1.948.468,2.716,2.716,0,0,1-1.566-.546Z" transform="translate(-2.844 -5)" fill="#fff"/>
</svg>
