<svg xmlns="http://www.w3.org/2000/svg" width="20.799" height="20.659" viewBox="0 0 20.799 20.659">
  <g id="l1" transform="translate(0.75 0.736)">
    <path id="p4" d="M-37.119-48.58a10.359,10.359,0,0,1,2.414.348,10.251,10.251,0,0,0,1.894.348,8.143,8.143,0,0,0,1.96-.393,8.688,8.688,0,0,1,2.36-.393,5.722,5.722,0,0,1,2.921.741,6.932,6.932,0,0,1,1.427,1.157,8.46,8.46,0,0,0-1.56,1.359,3.646,3.646,0,0,0-.894,2.381,3.934,3.934,0,0,0,.947,2.572,4.086,4.086,0,0,0,2.16,1.449,10.867,10.867,0,0,1-1.68,2.887q-1.774,2.258-3.521,2.258a7.143,7.143,0,0,1-1.92-.371,7.256,7.256,0,0,0-2.054-.371,6.2,6.2,0,0,0-1.96.382,5.677,5.677,0,0,1-1.8.393q-2.094,0-4.108-2.988a10.286,10.286,0,0,1-2.014-5.8,6.094,6.094,0,0,1,1.534-4.3,5.094,5.094,0,0,1,3.894-1.662m8.4-4.425a1.173,1.173,0,0,1,.067.258,1.912,1.912,0,0,1,.013.225,3.74,3.74,0,0,1-.4,1.572A4.7,4.7,0,0,1-30.3-49.366a4.192,4.192,0,0,1-1.48.831,8.269,8.269,0,0,1-1.414.191A4.62,4.62,0,0,1-32.145-51.3a5.718,5.718,0,0,1,3.427-1.707" transform="translate(42.547 53.005)" fill="none" stroke="#fff" stroke-width="1.5"/>
  </g>
</svg>
