<svg xmlns="http://www.w3.org/2000/svg" width="14.507" height="23.472" viewBox="0 0 14.507 23.472">
  <path id="podo_android" d="M9.091.009a.288.288,0,0,0-.136.059.573.573,0,0,0-.091.66l.782,1.511A5.9,5.9,0,0,0,7.244,6.1H17.263a5.9,5.9,0,0,0-2.4-3.857L15.642.728a.573.573,0,0,0-.091-.66.323.323,0,0,0-.51.132L14.18,1.842a4.438,4.438,0,0,0-3.853,0L9.465.2A.33.33,0,0,0,9.091.009Zm1.167,3.74a.64.64,0,0,1,.544.7.639.639,0,0,1-.544.7.638.638,0,0,1-.544-.7A.639.639,0,0,1,10.259,3.749Zm3.989,0a.639.639,0,0,1,.544.7.638.638,0,0,1-.544.7.639.639,0,0,1-.544-.7A.64.64,0,0,1,14.248,3.749ZM6.088,7.034A1.28,1.28,0,0,0,5,8.442v6.571a1.28,1.28,0,0,0,1.088,1.408.854.854,0,0,0,.363-.088V7.122A.854.854,0,0,0,6.088,7.034Zm1.088,0V17.36a1.282,1.282,0,0,0,1.088,1.408h7.979a1.282,1.282,0,0,0,1.088-1.408V7.034Zm11.243,0a.854.854,0,0,0-.363.088v9.211a.882.882,0,0,0,.363.088,1.28,1.28,0,0,0,1.088-1.408V8.442A1.28,1.28,0,0,0,18.419,7.034ZM8.627,19.707v1.877a1.707,1.707,0,0,0,1.451,1.877,1.707,1.707,0,0,0,1.451-1.877V19.707Zm4.352,0v1.877a1.707,1.707,0,0,0,1.451,1.877,1.707,1.707,0,0,0,1.451-1.877V19.707Z" transform="translate(-5 0.011)" fill="#fff"/>
</svg>
