<svg xmlns="http://www.w3.org/2000/svg" width="69.757" height="69.757" viewBox="0 0 69.757 69.757">
  <g id="layer1" transform="translate(0 -0.001)">
    <g id="g841" transform="translate(0 0.001)">
      <g id="g928" transform="translate(0 0)">
        <path id="path4" d="M99.654,63.3h-67.9a.928.928,0,0,1-.928-.928v-67.9a.928.928,0,0,1,.928-.928h67.9a.928.928,0,0,1,.928.928v67.9a.927.927,0,0,1-.928.928Z" transform="translate(-30.825 6.454)" fill="#624769"/>
        <ellipse id="ellipse6" cx="12.502" cy="12.15" rx="12.502" ry="12.15" transform="translate(22.375 22.992)" fill="none" stroke="#6d4bea" stroke-width="0.265"/>
        <ellipse id="ellipse8" cx="12.502" cy="12.15" rx="12.502" ry="12.15" transform="translate(22.375 22.992)" fill="none" stroke="#624769" stroke-width="0.265"/>
        <path id="path10" d="M42.747-4.106a9.49,9.49,0,0,0-9.622,9.351,9.626,9.626,0,0,0,19.245,0A9.49,9.49,0,0,0,42.747-4.106Zm0,14.129A4.849,4.849,0,0,1,37.83,5.245a4.918,4.918,0,0,1,9.833,0A4.849,4.849,0,0,1,42.747,10.023Z" transform="translate(-7.869 29.897)" fill="#fff"/>
        <path id="path12" d="M56.448-5.44c-13.639,0-24.7,10.746-24.7,24q0,.546.026,1.085V43.067H36.55V32.77l0,0V18.818h.006c0-.086-.006-.172-.006-.258,0-10.679,8.908-19.335,19.9-19.335s19.9,8.657,19.9,19.335S67.437,37.9,56.448,37.9a20.154,20.154,0,0,1-12.5-4.3V30.028a17.381,17.381,0,0,0,12.5,5.244,16.96,16.96,0,0,0,17.2-16.713,17.2,17.2,0,0,0-34.395,0c0,.061,0,.119,0,.18h0V43.066h4.694V39.254a25.1,25.1,0,0,0,12.5,3.306c13.639,0,24.7-10.746,24.7-24s-11.056-24-24.7-24Zm0,11.85a12.33,12.33,0,0,1,12.5,12.15,12.507,12.507,0,0,1-25,0A12.33,12.33,0,0,1,56.448,6.41Z" transform="translate(-21.57 16.582)" fill="#fff"/>
      </g>
    </g>
  </g>
</svg>
