<svg xmlns="http://www.w3.org/2000/svg" width="33.108" height="29.752" viewBox="0 0 33.108 29.752">
  <path id="podo_windows_logo" d="M15.861,5a15.644,15.644,0,0,0-5.579,1.213l-.606.2-.162.647-2.3,7.923-.647,2.3L8.827,16.6a13.248,13.248,0,0,1,3.881-.687h.081a9.133,9.133,0,0,1,4.649,1.334l1.455.808.445-1.577,2.425-8.368.283-.97L21.2,6.617A9.906,9.906,0,0,0,15.861,5Zm0,2.587a6.6,6.6,0,0,1,3.113.808l-1.738,5.942a11.028,11.028,0,0,0-4.406-1.011h-.121a15.465,15.465,0,0,0-2.426.4l1.536-5.255A13.271,13.271,0,0,1,15.861,7.587ZM23.7,8.4l-.485,1.577-2.425,8.449-.283.97.849.485a10.261,10.261,0,0,0,5.417,1.657,13.442,13.442,0,0,0,5.457-.93l.566-.243.162-.606,2.385-8.287.606-2.223-2.183.606a12.7,12.7,0,0,1-3.881.323,9.54,9.54,0,0,1-4.77-.97Zm1.657,3.638a13.7,13.7,0,0,0,4.528.728c.662,0,1.617-.152,2.425-.2l-1.617,5.7a11.629,11.629,0,0,1-3.921.687,6.777,6.777,0,0,1-3.194-.849ZM12.1,18.461a14.778,14.778,0,0,0-5.417,1.294L6.078,20l-.162.606-2.385,8-.687,2.3,2.3-.687a17.145,17.145,0,0,1,4.245-.647,6.959,6.959,0,0,1,4.2,1.172l1.415.808.445-1.577,2.466-8.489.283-.97-.849-.485A9.867,9.867,0,0,0,12.1,18.461Zm0,2.587a6.585,6.585,0,0,1,3.072.768L13.395,27.84a9.537,9.537,0,0,0-4-.849,19.34,19.34,0,0,0-2.83.445L8.18,22.059A12.275,12.275,0,0,1,12.1,21.049Zm7.762.647-.445,1.576L16.992,31.64l-.283.97.808.485a10,10,0,0,0,5.377,1.657,14.559,14.559,0,0,0,5.417-1.011l.606-.2.162-.647,2.385-7.964.647-2.183-2.223.566a15.411,15.411,0,0,1-3.719.485A9.5,9.5,0,0,1,21.277,22.5Zm1.617,3.679a11.6,11.6,0,0,0,4.689,1.011,17.737,17.737,0,0,0,2.223-.283l-1.577,5.336a12.337,12.337,0,0,1-3.921.728,6.552,6.552,0,0,1-3.153-.849Z" transform="translate(-2.844 -5)" fill="#fff"/>
</svg>
