<svg xmlns="http://www.w3.org/2000/svg" width="33.288" height="32.958" viewBox="0 0 33.288 32.958">
  <g id="l1" transform="translate(44.047 54.479)">
    <path id="p4" d="M-34.058-46.084a16.2,16.2,0,0,1,3.775.545A16.032,16.032,0,0,0-27.321-45a12.735,12.735,0,0,0,3.066-.615,13.589,13.589,0,0,1,3.692-.615A8.949,8.949,0,0,1-16-45.065a10.841,10.841,0,0,1,2.232,1.809,13.233,13.233,0,0,0-2.44,2.126,5.7,5.7,0,0,0-1.4,3.724,6.152,6.152,0,0,0,1.481,4.023,6.391,6.391,0,0,0,3.379,2.266A17,17,0,0,1-15.37-26.6q-2.774,3.531-5.506,3.531a11.172,11.172,0,0,1-3-.58,11.349,11.349,0,0,0-3.212-.58,9.7,9.7,0,0,0-3.066.6,8.878,8.878,0,0,1-2.816.615q-3.275,0-6.424-4.673a16.087,16.087,0,0,1-3.149-9.064,9.53,9.53,0,0,1,2.4-6.728,7.967,7.967,0,0,1,6.09-2.6m13.14-6.921a1.834,1.834,0,0,1,.1.4,2.99,2.99,0,0,1,.021.351,5.849,5.849,0,0,1-.626,2.459A7.352,7.352,0,0,1-23.4-47.314a6.556,6.556,0,0,1-2.315,1.3,12.931,12.931,0,0,1-2.211.3,7.226,7.226,0,0,1,1.648-4.62,8.942,8.942,0,0,1,5.36-2.67" transform="translate(0 0)" fill="none" stroke="#fff" stroke-width="3"/>
  </g>
</svg>
