<svg xmlns="http://www.w3.org/2000/svg" width="29.198" height="36.505" viewBox="0 0 29.198 36.505">
  <path id="podo_android" d="M13.235.02a.676.676,0,0,0-.274.091.743.743,0,0,0-.182,1.026l1.574,2.35a9.263,9.263,0,0,0-4.836,6H29.681a9.263,9.263,0,0,0-4.836-6l1.574-2.35A.743.743,0,0,0,26.237.111a.748.748,0,0,0-1.027.205L23.477,2.871a11.329,11.329,0,0,0-7.756,0L13.988.316A.733.733,0,0,0,13.235.02Zm2.349,5.817a1.095,1.095,0,1,1-1.095,1.095A1.1,1.1,0,0,1,15.584,5.837Zm8.029,0a1.095,1.095,0,1,1-1.095,1.095A1.093,1.093,0,0,1,23.614,5.837ZM7.19,10.946A2.19,2.19,0,0,0,5,13.136V23.355a2.19,2.19,0,0,0,2.19,2.19,2.14,2.14,0,0,0,.73-.137V11.083A2.14,2.14,0,0,0,7.19,10.946Zm2.19,0V27.005a2.194,2.194,0,0,0,2.19,2.19H27.629a2.194,2.194,0,0,0,2.19-2.19V10.946Zm22.629,0a2.14,2.14,0,0,0-.73.137V25.408a2.162,2.162,0,0,0,2.92-2.053V13.136A2.19,2.19,0,0,0,32.008,10.946ZM12.3,30.655v2.92a2.92,2.92,0,1,0,5.84,0v-2.92Zm8.759,0v2.92a2.92,2.92,0,0,0,5.84,0v-2.92Z" transform="translate(-5 0.011)" fill="#fff"/>
</svg>
